<svg xmlns="http://www.w3.org/2000/svg" version="1.1" xmlns:xlink="http://www.w3.org/1999/xlink" viewBox="0 0 700 700" style="overflow: hidden; display: block;" width="700" height="700"><defs><linearGradient id="two-3" x1="350" y1="-350" x2="350" y2="350" spreadMethod="pad" gradientUnits="userSpaceOnUse"><stop offset="0%" stop-color="hsl(205, 69%, 60%)" stop-opacity="1"></stop><stop offset="100%" stop-color="hsl(205, 69%, 80%)" stop-opacity="1"></stop></linearGradient></defs><g id="two-0" transform="matrix(1 0 0 1 0 0)" opacity="1"><path transform="matrix(1 0 0 1 350 350)" id="two-9" d="M 130.056167 38.187936 C 113.995635 94.950758 267.842775 106.872955 256.322139 164.728236 C 250.492838 194.002298 201.606592 191.655284 172.779553 199.398234 C 148.005104 206.052657 117.513077 196.062647 95.715052 209.586729 C 68.553627 226.43841 66.059816 269.296669 41.693549 289.985003 C 17.007166 310.945134 -20.011298 347.806262 -47.559117 330.780921 C -106.695107 294.233185 7.867032 150.100387 -54.915286 120.247701 C -108.50395 94.766552 -143.788948 252.339057 -198.260926 228.805304 C -227.157815 216.320862 -205.061825 165.25742 -208.448476 133.9617 C -210.966269 110.695013 -206.6449 84.855084 -216.133926 63.462646 C -227.492901 37.85452 -272.796698 28.012936 -272.517671 0 C -272.23594 -28.28434 -221.662276 -35.613904 -214.322566 -62.930784 C -206.646678 -91.498844 -238.3306 -121.12122 -234.00231 -150.384153 C -229.986103 -177.537142 -210.459762 -201.56502 -193.032182 -222.771014 C -174.918525 -244.811831 -149.111454 -260.533174 -127.471731 -279.124157 C -101.822562 -301.15971 -83.089071 -351.410956 -49.729836 -345.878603 C 1.532782 -337.377123 -8.707821 -244.63944 30.225913 -210.225844 C 45.023516 -197.146217 65.377115 -186.664707 85.124883 -186.397494 C 126.830244 -185.833167 172.524419 -262.685247 202.385334 -233.565127 C 236.726302 -200.076096 127.362985 -138.817271 151.545165 -97.392165 C 171.272329 -63.598694 239.624574 -105.110644 268.668334 -78.888141 C 288.656188 -60.841871 303.356122 -23.117606 289.544588 -0.000001 C 261.787936 46.4588 144.790199 -13.886628 130.056167 38.187936 Z " fill="url(#two-3)" stroke="undefined" stroke-width="1" stroke-opacity="1" fill-opacity="1" visibility="visible" stroke-linecap="butt" stroke-linejoin="miter" stroke-miterlimit="4"></path></g></svg>